<?xml version="1.0" encoding="UTF-8"?>
<svg xmlns="http://www.w3.org/2000/svg" version="1.1" xmlns:xlink="http://www.w3.org/1999/xlink" viewBox="0 0 4000 4000">
  <defs>
    <linearGradient id="linear-gradient" x1="-126.126" y1="2813.354" x2="-126.126" y2="3637.562" gradientTransform="translate(2080.994 -351.128)" gradientUnits="userSpaceOnUse">
      <stop offset="0" stop-color="#fff"/>
      <stop offset="1" stop-color="#000"/>
    </linearGradient>
    <mask id="mask" x="519.739" y="2243.43" width="2870.258" height="805.332" maskUnits="userSpaceOnUse">
      <rect x="519.739" y="2243.431" width="2870.258" height="805.331" style="fill: url(#linear-gradient);"/>
    </mask>
    <linearGradient id="linear-gradient-2" x1="-281.406" y1="3439.986" x2="-281.406" y2="3085.875" gradientTransform="translate(2236.27 -377.834)" xlink:href="#linear-gradient"/>
    <mask id="mask-1" x="1052.278" y="2688.6" width="1805.173" height="268.571" maskUnits="userSpaceOnUse">
      <rect x="1052.278" y="2688.6" width="1805.173" height="268.571" style="fill: url(#linear-gradient-2);"/>
    </mask>
    <linearGradient id="linear-gradient-3" x1="-1103.209" y1="2788.734" x2="-1127.903" y2="1776.306" gradientTransform="translate(2023.577 -501.716)" xlink:href="#linear-gradient"/>
    <mask id="mask-2" x="322.818" y="1490.052" width="1181.643" height="1042.25" maskUnits="userSpaceOnUse">
      <rect x="322.818" y="1490.052" width="1181.643" height="1042.25" style="fill: url(#linear-gradient-3);"/>
    </mask>
    <linearGradient id="linear-gradient-4" x1="-1211.629" y1="1956.523" x2="-1228.847" y2="2703.671" gradientTransform="translate(2109.409 -664.766)" xlink:href="#linear-gradient"/>
    <mask id="mask-3" x="617.192" y="1541.896" width="539.71" height="431.204" maskUnits="userSpaceOnUse">
      <rect x="617.192" y="1541.896" width="539.71" height="431.204" style="fill: url(#linear-gradient-4);"/>
    </mask>
    <linearGradient id="linear-gradient-5" x1="422.414" y1="2788.734" x2="447.107" y2="1776.306" gradientTransform="translate(2657.038 -501.716)" xlink:href="#linear-gradient"/>
    <mask id="mask-4" x="2495.358" y="1490.052" width="1181.643" height="1042.25" maskUnits="userSpaceOnUse">
      <rect x="2495.358" y="1490.052" width="1181.643" height="1042.25" style="fill: url(#linear-gradient-5);"/>
    </mask>
    <linearGradient id="linear-gradient-6" x1="-129.321" y1="2265.788" x2="-129.321" y2="1441.58" gradientTransform="translate(2079.679 -727.848)" xlink:href="#linear-gradient"/>
    <mask id="mask-5" x="515.23" y="951.42" width="2870.257" height="805.331" maskUnits="userSpaceOnUse">
      <rect x="515.23" y="951.42" width="2870.257" height="805.331" style="fill: url(#linear-gradient-6);"/>
    </mask>
    <linearGradient id="linear-gradient-7" x1="-284.6" y1="1795.674" x2="-284.6" y2="2149.785" gradientTransform="translate(2234.955 -857.649)" xlink:href="#linear-gradient"/>
    <mask id="mask-6" x="1047.769" y="1043.011" width="1805.173" height="268.57" maskUnits="userSpaceOnUse">
      <rect x="1047.769" y="1043.011" width="1805.173" height="268.57" style="fill: url(#linear-gradient-7);"/>
    </mask>
  </defs>
  <!-- Generator: Adobe Illustrator 28.7.7, SVG Export Plug-In . SVG Version: 1.2.0 Build 194)  -->
  <g>
    <g id="Layer_1">
      <g>
        <path d="M2606.114,3277.537c0-174.458-292.159-83.33-601.251-83.33s-624.313-20.231-624.313,80.271c0,279.263,507.566,398.131,759.852,343.702,231.405-49.926,465.712-166.185,465.712-340.642" style="fill: #f5ca01; fill-rule: evenodd;"/>
        <path d="M2606.114,3277.537c0-168.789-273.484-88.976-571.188-83.611-32.442,47.269-212.805-73.709,51.747,180.056,264.552,253.764-211.807,224.256-211.807,224.256-318.957-36.01-245.403-247.391-245.403-247.391,0,0-3.81-90.854-12.417-156.233-139.32,5.494-236.496,24.07-236.496,79.865,0,279.263,507.566,398.131,759.852,343.702,231.405-49.926,465.712-166.185,465.712-340.642" style="fill: #f4a70c; fill-rule: evenodd;"/>
        <path d="M2176.22,3367.697c155.46-12.701,304.752-41.309,434.573-85.49-6.495,170.361-237.444,284.047-465.572,333.266-35.147,7.583-75.249,11.802-118.244,12.693,0,0,512.081-82.872,149.243-260.468" style="fill: #f1892d; fill-rule: evenodd;"/>
        <path d="M2143.016,3539.388c22.183,0,40.167-17.983,40.167-40.167s-17.984-40.166-40.167-40.166-40.168,17.983-40.168,40.166,17.983,40.167,40.168,40.167" style="fill: #f1892d; fill-rule: evenodd;"/>
        <path d="M2273.259,3514.656c25.927,0,46.944-21.018,46.944-46.944s-21.017-46.943-46.944-46.943-46.943,21.017-46.943,46.943,21.017,46.944,46.943,46.944" style="fill: #f1892d; fill-rule: evenodd;"/>
        <path d="M2604.476,3256.507c-23.564-145.723-303.815-62.3-599.613-62.3-309.093,0-624.313-20.231-624.313,80.271,0,1.47.096,2.909.125,4.37,307.784,203.519,956.004,190.15,1223.802-22.341" style="fill: #d07701; fill-rule: evenodd;"/>
        <path d="M3048.755,2812.219c0-281.119-546.267-92.702-1044.336-92.702s-1139.124-114.459-1139.124,47.489c0,816.261,2183.46,795.197,2183.46,45.213" style="fill: #f5ca01; fill-rule: evenodd;"/>
        <path d="M1280.132,3178.963c335.176,232.784,898.916,195.492,1233.747-1.647,307.597-181.103-262.079-348.944-183.037-380.933,60.178-24.354,708.83-41.308,713.024,17.551,53.315,748.086-2183.46,771.047-2183.46-45.213,44.426,27.572,92.32,53.446,143.181,77.474,10.573-15.079,21.276-31.449,30.559-49.5,37.04-72.022,115.236-2.058,211.952,8.231,96.716,10.29,523.49,140.67,189.939,182.397-316.791,39.631-171.327,177.848-155.907,191.639" style="fill: #f4a70c; fill-rule: evenodd;"/>
        <path d="M2641.398,2969.29c153.879-39.448,292.358-92.815,407.357-157.072,15.173,221.104-169.874,378.751-437.962,469.988-129.821,44.181-279.113,72.79-434.573,85.49,0,0,248.655-64.668,418.652-150.988,148.689-75.501,237.202-167.568,46.526-247.419" style="fill: #f1892d; fill-rule: evenodd;"/>
        <path d="M3036.463,2748.716c-83.245-185.944-577.658-29.199-1032.045-29.199-431.083,0-969.184-85.702-1106.151-3.765,227.821,238.774,655.363,390.628,1098.945,390.628,435.4,0,834.196-142.243,1039.251-357.663" style="fill: #d07701; fill-rule: evenodd;"/>
        <path d="M2004.418,3048.762c778.309,0,1456.743-331.905,1379.576-749.597-77.167-417.691-601.267-269.74-1379.576-269.74s-1452.875-249.986-1483.741,214.005c-30.867,463.992,705.431,805.332,1483.741,805.332" style="fill: #f5ca01; fill-rule: evenodd;"/>
        <g style="mask: url(#mask);">
          <path d="M1706.013,2667.054c-341.48-68.297-727.191-68.365-749.898,27.622-18.165,76.784,312.049,177.626,359.16,192.903,331.744,107.577,871.306,196.496,1492.867-33.029,49.436-18.256,239.404-69.715,194.703-149.43-47.445-84.612-362.859-107.877-607.7-112.384,7.16-4.643,14.233-9.411,21.214-14.298,323.819-34.91,601.536-109.934,791.358-209.587,49.879-16.702,96.495-34.439,139.519-53.102,10.332-4.481,20.455-9.017,30.367-13.604,2.14-.991,4.27-1.983,6.39-2.979,36.864,199.54-98.713,379.502-335.24,513.053-119.011,67.197-263.579,122.645-424.598,162.924-188.848,47.241-400.324,73.62-619.738,73.62-209.311,0-415.582-24.687-604.711-69.806-203.974-48.662-388.009-121.09-534.413-211.95-222.622-138.162-358.231-318.939-344.618-523.576,33.106,20.37,70.063,39.975,110.555,58.714,9.911,4.587,20.035,9.122,30.366,13.604,43.086,18.69,89.777,36.452,139.736,53.175,189.795,99.612,467.421,174.608,791.139,209.512,46.97,32.888,98.052,60.304,152.322,81.324l-38.782,7.295Z" style="fill: #f4a70c; fill-rule: evenodd;"/>
        </g>
        <g style="mask: url(#mask-1);">
          <path d="M1052.913,2690.331c.14-.586.35-1.153.519-1.731,79.922,31.378,156.939,55.137,178.618,62.168,359.387,116.541,943.908,212.868,1617.264-35.781,2.166-.8,4.605-1.664,7.243-2.582,13.77,62.716-135.419,103.384-176.134,118.419-546.211,201.699-1020.361,123.56-1311.889,29.024-41.389-13.422-331.427-101.994-315.633-169.463.004-.019.009-.037.013-.055" style="fill: #fde3a7; fill-rule: evenodd;"/>
        </g>
        <path d="M2996.064,2790.953c138.898-99.714,200.632-219.472-103.572-301.289,121.086-33.998,227.536-74.778,315.227-120.814,49.879-16.702,96.495-34.439,139.519-53.102,10.332-4.481,20.455-9.017,30.367-13.604,2.14-.991,4.27-1.983,6.39-2.979,36.864,199.54-98.713,379.502-335.24,513.053-1.602.904-3.208,1.806-4.819,2.707-114.999,64.256-253.477,117.623-407.357,157.071,0,0,219.136-80.288,359.485-181.043" style="fill: #f1892d; fill-rule: evenodd;"/>
        <path d="M3020.789,2674.817c44.394,0,80.382-35.988,80.382-80.382s-35.988-80.382-80.382-80.382-80.381,35.988-80.381,80.382,35.988,80.382,80.381,80.382" style="fill: #f1892d; fill-rule: evenodd;"/>
        <path d="M2848.37,2657.155c28.057,0,50.802-22.745,50.802-50.802s-22.746-50.801-50.802-50.801-50.802,22.745-50.802,50.801,22.746,50.802,50.802,50.802" style="fill: #f1892d; fill-rule: evenodd;"/>
        <path d="M2928.109,2792.197c28.057,0,50.802-22.745,50.802-50.802s-22.746-50.802-50.802-50.802-50.801,22.745-50.801,50.802,22.746,50.802,50.801,50.802" style="fill: #f1892d; fill-rule: evenodd;"/>
        <path d="M2449.665,2841.95c43.152,0,78.132-34.981,78.132-78.132s-34.98-78.131-78.132-78.131-78.131,34.981-78.131,78.131,34.98,78.132,78.131,78.132" style="fill: #f1892d; fill-rule: evenodd;"/>
        <path d="M2244.777,3309.037c51.939,0,94.044-42.105,94.044-94.044s-42.105-94.044-94.044-94.044-94.044,42.105-94.044,94.044,42.105,94.044,94.044,94.044" style="fill: #f1892d; fill-rule: evenodd;"/>
        <path d="M2474.106,3211.292c30.234,0,54.744-24.51,54.744-54.744s-24.511-54.745-54.744-54.745-54.744,24.51-54.744,54.745,24.509,54.744,54.744,54.744" style="fill: #f1892d; fill-rule: evenodd;"/>
        <path d="M2722.471,3192.472c55.933,0,101.275-45.343,101.275-101.276s-45.342-101.276-101.275-101.276-101.275,45.343-101.275,101.276,45.342,101.276,101.275,101.276" style="fill: #f1892d; fill-rule: evenodd;"/>
        <path d="M1376.493,2842.986c43.151,0,78.132-34.981,78.132-78.132s-34.981-78.131-78.132-78.131-78.131,34.981-78.131,78.131,34.98,78.132,78.131,78.132" style="fill: #f1892d; fill-rule: evenodd;"/>
        <path d="M3373.552,2293.839c-105.856-362.963-619.569-225.831-1369.133-225.831-704.333,0-1323.672-204.688-1457.925,100.257,98.548,265.716,713.67,470.402,1457.925,470.402,621.796,0,1153.518-142.864,1369.133-344.828" style="fill: #d07701; fill-rule: evenodd;"/>
        <path d="M2601.605,722.645c0,174.458-292.159,83.331-601.251,83.331s-624.313,20.231-624.313-80.271c0-279.263,507.566-398.132,759.852-343.702,231.405,49.925,465.712,166.184,465.712,340.642" style="fill: #f5ca01; fill-rule: evenodd;"/>
        <path d="M2601.605,722.645c0,168.789-273.484,88.976-571.188,83.61-32.442-47.268-212.805,73.709,51.747-180.055,264.552-253.765-211.808-224.256-211.808-224.256-318.956,36.011-245.402,247.392-245.402,247.392,0,0-3.81,90.854-12.417,156.233-139.32-5.494-236.496-24.07-236.496-79.864,0-279.263,507.566-398.132,759.852-343.702,231.405,49.925,465.712,166.184,465.712,340.642" style="fill: #f4a70c; fill-rule: evenodd;"/>
        <path d="M2171.711,632.485c155.46,12.701,304.752,41.309,434.573,85.49-6.495-170.361-237.444-284.048-465.572-333.266-35.147-7.583-75.249-11.802-118.244-12.693,0,0,512.081,82.873,149.243,260.468" style="fill: #f1892d; fill-rule: evenodd;"/>
        <path d="M2599.968,743.675c-23.564,145.723-303.815,62.301-599.613,62.301-309.093,0-624.313,20.231-624.313-80.271,0-1.47.096-2.909.125-4.37,307.784-203.519,956.004-190.149,1223.802,22.341" style="fill: #d07701; fill-rule: evenodd;"/>
        <path d="M3044.245,1187.963c0,281.119-546.266,92.702-1044.335,92.702s-1139.123,114.459-1139.123-47.489c0-816.261,2183.459-795.197,2183.459-45.213" style="fill: #f5ca01; fill-rule: evenodd;"/>
        <path d="M1275.623,821.219c335.176-232.784,898.916-195.492,1233.747,1.647,307.597,181.103-262.079,348.944-183.037,380.933,60.178,24.354,708.83,41.308,713.024-17.55,53.315-748.086-2183.46-771.048-2183.46,45.213,44.425-27.572,92.319-53.446,143.181-77.474,10.573,15.079,21.276,31.449,30.559,49.499,37.04,72.022,115.236,2.058,211.952-8.231,96.716-10.29,523.489-140.67,189.939-182.398-316.791-39.631-171.327-177.848-155.907-191.639" style="fill: #f4a70c; fill-rule: evenodd;"/>
        <path d="M2636.889,1030.892c153.879,39.448,292.358,92.815,407.356,157.071,15.174-221.104-169.873-378.751-437.961-469.988-129.821-44.182-279.113-72.79-434.573-85.49,0,0,248.655,64.667,418.651,150.988,148.689,75.501,237.202,167.568,46.526,247.419" style="fill: #f1892d; fill-rule: evenodd;"/>
        <path d="M3031.954,1251.466c-83.245,185.944-577.658,29.2-1032.045,29.2-431.083,0-969.184,85.701-1106.151,3.765,227.821-238.774,655.363-390.628,1098.945-390.628,435.4,0,834.196,142.243,1039.25,357.663" style="fill: #d07701; fill-rule: evenodd;"/>
        <path d="M1999.909,951.42c778.309,0,1456.743,331.905,1379.576,749.596-77.167,417.691-601.267,269.74-1379.576,269.74s-1452.875,249.986-1483.742-214.005c-30.867-463.992,705.431-805.331,1483.742-805.331" style="fill: #f5ca01; fill-rule: evenodd;"/>
        <path d="M3369.043,1744.926c-105.856,362.963-619.569,225.831-1369.133,225.831-704.333,0-1323.671,204.689-1457.925-100.257,98.548-265.716,713.67-470.402,1457.925-470.402,621.795,0,1153.518,142.864,1369.133,344.828" style="fill: #d07701; fill-rule: evenodd;"/>
        <path d="M1999.909,1465.866c926.232,0,1677.091,244.144,1677.091,545.312s-750.859,545.311-1677.091,545.311-1677.091-244.145-1677.091-545.311,750.86-545.312,1677.091-545.312" style="fill: #f5ca01; fill-rule: evenodd;"/>
        <path d="M1999.909,1292.124c397.122,0,719.053,321.931,719.053,719.054s-321.93,719.053-719.053,719.053-719.053-321.931-719.053-719.053,321.93-719.054,719.053-719.054" style="fill: #f5ca01; fill-rule: evenodd;"/>
        <path d="M1999.909,1356.782c361.412,0,654.395,292.983,654.395,654.395s-292.983,654.395-654.395,654.395-654.394-292.983-654.394-654.395,292.983-654.395,654.394-654.395" style="fill: #5e2c0b; fill-rule: evenodd; opacity: .79;"/>
        <g style="mask: url(#mask-2);">
          <path d="M620.145,2109.297c-78.841-38.205-128.546-110.794-81.213-245.911,16.506-47.115,44.81-101.834,87.791-165.348-40.493,18.739-77.45,38.344-110.555,58.714-123.451,75.957-193.35,162.537-193.35,254.426,0,93.435,72.269,181.38,199.624,258.249,206.712,124.769,558.544,220.358,982.019,262.875-127.131-120.905-210.069-287.847-222.092-474.104-.86-13.321-1.357-26.74-1.482-40.248-.02-2.255-.031-4.512-.031-6.772,0-205.092,85.864-390.13,223.605-521.125-105.672,10.609-302.491,41.371-302.491,41.371,138.76,66.055,49.317,883.708-581.826,577.874" style="fill: #f4a70c; fill-rule: evenodd;"/>
        </g>
        <g style="mask: url(#mask-3);">
          <path d="M630.691,1743.347c-34.62,98.822,1.734,151.912,59.397,179.854,190.02,92.078,312.903,44.914,384.643-45.827,3.451-4.365,6.784-8.83,9.999-13.386,71.996-101.99,85.575-249.171,60.717-322.093-190.21,36.695-356.239,85.246-488.354,142.547-11.373,21.246-20.075,40.84-26.403,58.904" style="fill: #fefefe; fill-rule: evenodd;"/>
        </g>
        <g style="mask: url(#mask-4);">
          <path d="M3373.095,1698.038c40.493,18.739,77.45,38.344,110.556,58.714,123.452,75.957,193.35,162.537,193.35,254.426,0,93.435-72.269,181.38-199.623,258.249-206.712,124.769-558.545,220.358-982.019,262.875,127.131-120.905,210.069-287.847,222.092-474.104.859-13.321,1.357-26.74,1.482-40.248.02-2.255.031-4.512.031-6.772,0-205.092-85.864-390.13-223.605-521.125,105.672,10.609,302.491,41.371,302.491,41.371-83.152,39.583-73.272,204.971,26.251,309.64,223.498,235.062,597.492-71.363,548.995-143.026" style="fill: #f4a70c; fill-rule: evenodd;"/>
        </g>
        <path d="M1999.909,1492.734c286.328,0,518.442,232.115,518.442,518.442s-232.114,518.442-518.442,518.442-518.442-232.115-518.442-518.442,232.115-518.442,518.442-518.442" style="fill-rule: evenodd; opacity: .83;"/>
        <g style="mask: url(#mask-5);">
          <path d="M1701.505,1333.128c-341.48,68.297-727.191,68.365-749.898-27.622-18.165-76.784,312.049-177.626,359.16-192.903,331.744-107.577,871.306-196.496,1492.867,33.029,49.435,18.256,239.404,69.715,194.703,149.43-47.445,84.611-362.859,107.877-607.7,112.384,7.16,4.643,14.233,9.411,21.214,14.299,323.819,34.91,601.536,109.934,791.358,209.586,49.879,16.702,96.495,34.439,139.519,53.102,10.332,4.482,20.455,9.017,30.366,13.604,2.141.991,4.271,1.983,6.391,2.979,36.864-199.54-98.713-379.502-335.241-513.053-119.01-67.197-263.578-122.645-424.597-162.924-188.848-47.241-400.324-73.619-619.738-73.619-209.311,0-415.582,24.686-604.711,69.806-203.974,48.662-388.009,121.09-534.413,211.95-222.623,138.161-358.231,318.939-344.618,523.575,33.106-20.37,70.062-39.975,110.555-58.714,9.911-4.587,20.035-9.122,30.366-13.604,43.086-18.69,89.777-36.452,139.736-53.176,189.795-99.612,467.421-174.608,791.139-209.512,46.97-32.888,98.052-60.304,152.322-81.323l-38.782-7.296Z" style="fill: #f4a70c; fill-rule: evenodd;"/>
        </g>
        <g style="mask: url(#mask-6);">
          <path d="M1048.404,1309.851c.14.586.35,1.153.519,1.731,79.922-31.378,156.939-55.137,178.618-62.168,359.387-116.541,943.908-212.868,1617.264,35.781,2.166.8,4.605,1.665,7.243,2.582,13.77-62.716-135.419-103.384-176.134-118.419-546.211-201.699-1020.361-123.56-1311.89-29.024-41.388,13.422-331.426,101.994-315.633,169.463.004.02.009.037.013.055" style="fill: #fde3a7; fill-rule: evenodd;"/>
        </g>
        <path d="M2991.555,1209.229c138.899,99.714,200.632,219.471-103.572,301.289,121.086,33.998,227.536,74.778,315.227,120.814,49.879,16.702,96.495,34.439,139.519,53.102,10.332,4.482,20.455,9.017,30.366,13.604,2.141.991,4.271,1.983,6.391,2.979,36.864-199.54-98.713-379.502-335.241-513.053-1.601-.904-3.208-1.806-4.819-2.707-114.999-64.256-253.477-117.623-407.357-157.071,0,0,219.136,80.288,359.485,181.043" style="fill: #f1892d; fill-rule: evenodd;"/>
        <path d="M3016.28,1325.365c44.394,0,80.382,35.988,80.382,80.382s-35.988,80.382-80.382,80.382-80.381-35.988-80.381-80.382,35.988-80.382,80.381-80.382" style="fill: #f1892d; fill-rule: evenodd;"/>
        <path d="M2843.861,1343.027c28.057,0,50.802,22.745,50.802,50.802s-22.746,50.801-50.802,50.801-50.801-22.745-50.801-50.801,22.746-50.802,50.801-50.802" style="fill: #f1892d; fill-rule: evenodd;"/>
        <path d="M2923.6,1207.985c28.057,0,50.802,22.745,50.802,50.803s-22.746,50.801-50.802,50.801-50.802-22.745-50.802-50.801,22.746-50.803,50.802-50.803" style="fill: #f1892d; fill-rule: evenodd;"/>
        <path d="M2445.156,1158.232c43.152,0,78.132,34.981,78.132,78.132s-34.98,78.131-78.132,78.131-78.13-34.981-78.13-78.131,34.98-78.132,78.13-78.132" style="fill: #f1892d; fill-rule: evenodd;"/>
        <path d="M2240.267,691.145c51.939,0,94.044,42.105,94.044,94.044s-42.104,94.044-94.044,94.044-94.044-42.105-94.044-94.044,42.105-94.044,94.044-94.044" style="fill: #f1892d; fill-rule: evenodd;"/>
        <path d="M2469.597,788.89c30.234,0,54.744,24.51,54.744,54.744s-24.511,54.744-54.744,54.744-54.744-24.51-54.744-54.744,24.509-54.744,54.744-54.744" style="fill: #f1892d; fill-rule: evenodd;"/>
        <path d="M2717.962,807.711c55.933,0,101.276,45.342,101.276,101.276s-45.342,101.276-101.276,101.276-101.276-45.343-101.276-101.276,45.342-101.276,101.276-101.276" style="fill: #f1892d; fill-rule: evenodd;"/>
        <path d="M2138.507,460.794c22.183,0,40.167,17.983,40.167,40.166s-17.984,40.167-40.167,40.167-40.168-17.983-40.168-40.167,17.983-40.166,40.168-40.166" style="fill: #f1892d; fill-rule: evenodd;"/>
        <path d="M2268.75,485.526c25.927,0,46.944,21.018,46.944,46.944s-21.017,46.943-46.944,46.943-46.943-21.016-46.943-46.943,21.017-46.944,46.943-46.944" style="fill: #f1892d; fill-rule: evenodd;"/>
        <path d="M1371.984,1157.195c43.151,0,78.132,34.981,78.132,78.132s-34.981,78.131-78.132,78.131-78.13-34.981-78.13-78.131,34.98-78.132,78.13-78.132" style="fill: #f1892d; fill-rule: evenodd;"/>
        <path d="M3377.358,1711.852s77.976,771.45-658.889,326.232c-.248,6.729-.589,13.434-1.019,20.113-12.023,186.257-94.961,353.199-222.092,474.104,423.475-42.517,775.308-138.106,982.019-262.875,127.354-76.87,199.623-164.815,199.623-258.249,0-91.889-69.898-178.469-193.35-254.426-33.106-20.37-70.062-39.975-110.556-58.714,2.666,3.938,4.055,8.586,4.264,13.815" style="fill: #f1892d; fill-rule: evenodd;"/>
      </g>
    </g>
  </g>
</svg>
